<svg width="137" height="64" viewBox="0 0 137 64" fill="none" xmlns="http://www.w3.org/2000/svg">
<path fill-rule="evenodd" clip-rule="evenodd" d="M27.0413 20.3145L13.0343 39.9488L28.1336 38.2873V48.3376L0.0222168 51.1773V43.1018L13.6963 23.7438L0.367949 25.3286V15.5419L27.0413 12.0384V20.3145ZM118.909 28.5984C121.214 27.787 122.956 26.2949 124.131 24.1237C125.319 21.8943 125.591 19.6363 124.943 17.3519C124.289 15.0462 122.902 13.3742 120.786 12.3347C118.71 11.3343 116.524 11.2581 114.229 12.1028C111.943 12.9444 110.218 14.4529 109.052 16.6283C107.899 18.8392 107.647 21.0771 108.292 23.3493C108.93 25.601 110.286 27.2487 112.362 28.2967C114.432 29.3045 116.614 29.4071 118.909 28.5984ZM106.238 3.97851C110.691 0.81384 115.543 -0.297154 120.791 0.671988C126.085 1.66813 130.203 4.47975 133.12 9.10104C136.025 13.7043 136.866 18.7522 135.65 24.2188C134.429 29.6304 131.532 33.8404 126.985 36.8568C122.46 39.8569 117.635 40.8065 112.5 39.7288C107.387 38.64 103.437 35.8702 100.626 31.4157C97.8036 26.9426 96.9205 22.0535 97.9824 16.7224C99.0634 11.3775 101.807 7.12782 106.238 3.97798V3.97851ZM57.2239 8.18586V26.9722C57.2239 29.2895 56.4682 31.3558 54.9605 33.1703C53.477 34.9762 51.683 35.9935 49.5829 36.2248C47.4904 36.4545 45.7066 35.8369 44.2273 34.3744C42.7518 32.9157 42.0159 31.0451 42.0159 28.7591V10.2215L32.5826 11.4834V29.8685C32.5826 34.9085 34.2166 39.0608 37.501 42.3398C40.8042 45.5966 44.8267 46.9934 49.5829 46.5138C53.0809 46.1613 55.6322 44.9429 57.2239 42.8537V44.1526C57.2239 46.4688 56.4682 48.5246 54.9605 50.3152C53.477 52.099 51.683 53.0888 49.5829 53.2878C49.5829 53.2878 44.0175 53.9896 40.2969 49.9924L34.4408 55.0435L32.5537 56.6716C32.5537 56.6716 38.4633 63.6398 47.7799 63.6662L47.7858 63.6556C48.3766 63.6684 48.9734 63.662 49.5829 63.6096C54.3397 63.2026 58.4409 61.0107 61.8714 57.0156C65.3223 53.0406 67.0665 48.432 67.0874 43.2105V6.86632L57.2239 8.18586ZM94.9664 12.2352V3.32083C94.9664 3.32083 88.4831 3.39017 85.0954 5.54546H85.0959C84.6044 5.8221 84.1416 6.14582 83.7141 6.51196L83.7392 4.80233L73.9736 6.08958V43.9941L83.1682 43.1975L83.4716 22.7889C83.6589 20.4034 85.0435 13.1292 94.9664 12.2352Z" fill="black"/>
</svg>
